<svg
  version="1.0"
  xmlns="http://www.w3.org/2000/svg"
  width="167"
  height="43"
  viewBox="0 0 1086.000000 291.000000"
  preserveAspectRatio="xMidYMid meet"
>
  <g
    transform="translate(0.000000,291.000000) scale(0.100000,-0.100000)"
    fill="currentColor"
    stroke="none"
  >
    <path
      d="M460 2898 c0 -7 -18 -24 -39 -37 -77 -47 -71 76 -71 -1401 l0 -1323 21 -34 c12 -18 37 -45 57 -58 l37 -25 5110 0 5110 1 39 27 c21 15 47 43 58 62 18 34 18 83 16 1357 -3 1322 -3 1322 -24 1350 -11 15 -35 37 -52 48 -17 11 -31 26 -32 33 0 9 -1030 12 -5115 12 -4085 0 -5115 -3 -5115 -12z m10216 -106 c12 -9 27 -27 33 -39 8 -16 11 -379 11 -1302 l0 -1279 -26 -31 -26 -31 -5091 0 -5092 1 -25 20 -25 21 0 1305 0 1305 28 24 28 24 5082 0 c4800 0 5083 -1 5103 -18z"
    />
    <path
      d="M5695 2611 c-22 -10 -53 -33 -70 -50 l-30 -32 -3 -1042 c-1 -573 0 -1057 3 -1076 7 -37 42 -74 97 -102 36 -18 99 -19 2361 -19 2317 0 2325 0 2370 20 26 12 58 36 72 54 l25 33 0 1059 0 1059 -25 37 c-15 23 -43 45 -71 58 -46 20 -51 20 -2368 20 -2238 0 -2322 -1 -2361 -19z m1760 -725 c184 -49 295 -199 294 -396 0 -110 -33 -199 -102 -276 -58 -64 -127 -101 -223 -119 -163 -32 -322 27 -411 152 -56 78 -68 124 -68 253 0 110 1 118 33 182 50 101 138 174 247 204 57 16 171 16 230 0z m2470 -1 c75 -22 136 -79 160 -148 24 -71 17 -89 -32 -85 -34 3 -41 8 -63 50 -42 79 -68 93 -180 93 -85 0 -98 -3 -127 -24 -73 -54 -62 -140 21 -181 26 -12 88 -35 139 -50 124 -37 176 -63 223 -111 39 -40 39 -40 39 -122 0 -79 -2 -85 -33 -124 -40 -51 -96 -80 -177 -92 -74 -11 -183 3 -235 30 -84 44 -138 129 -131 207 1 7 17 12 44 12 41 0 43 -2 63 -49 15 -34 35 -58 63 -77 38 -24 51 -27 130 -28 70 0 94 4 117 19 45 29 63 57 64 96 0 67 -54 108 -190 144 -164 43 -233 83 -271 157 -55 107 13 243 141 282 61 19 171 19 235 1z m-3750 -52 c25 -32 66 -87 90 -123 24 -36 78 -112 119 -170 42 -58 94 -133 117 -167 23 -35 48 -63 55 -63 12 0 14 50 14 280 0 272 1 280 21 290 11 6 33 8 50 5 l29 -7 -2 -386 -3 -387 -45 -3 -46 -3 -57 83 c-32 46 -86 122 -120 170 -34 48 -75 107 -92 130 -101 146 -148 207 -156 202 -5 -3 -9 -135 -9 -295 l0 -289 -44 0 c-31 0 -46 5 -50 16 -3 9 -6 181 -6 383 0 272 3 370 12 379 7 7 27 12 45 12 28 0 39 -8 78 -57z m2383 48 c8 -5 12 -23 10 -47 l-3 -39 -130 -5 -130 -5 -3 -343 -2 -343 -48 3 -47 3 -5 340 -5 340 -125 5 -125 5 -3 33 c-6 65 -21 62 305 62 164 0 304 -4 311 -9z m713 -1 c22 -12 25 -48 7 -73 -11 -14 -38 -17 -193 -19 l-180 -3 0 -115 0 -115 164 -3 c101 -1 170 -7 178 -13 16 -14 17 -65 2 -75 -6 -4 -78 -6 -160 -5 -91 1 -156 -2 -169 -9 -18 -10 -20 -20 -20 -123 0 -75 4 -117 12 -125 8 -8 66 -12 195 -12 l183 0 0 -45 0 -45 -239 0 c-209 0 -240 2 -245 16 -3 9 -6 181 -6 383 0 272 3 370 12 379 15 15 430 17 459 2z"
    />
    <path
      d="M7269 1791 c-177 -37 -275 -233 -208 -414 46 -123 145 -187 289 -187 124 0 216 57 266 165 19 41 24 67 24 139 0 76 -4 97 -26 142 -29 59 -73 103 -134 134 -43 22 -154 33 -211 21z"
    />
    <path
      d="M1520 1886 c-77 -21 -121 -46 -174 -99 -81 -81 -118 -174 -118 -298 0 -162 79 -292 221 -362 64 -31 69 -32 191 -31 114 0 130 3 183 27 81 38 158 113 191 188 42 91 40 93 -86 97 l-106 3 -18 -30 c-40 -67 -126 -103 -202 -82 -62 16 -87 34 -117 81 -21 33 -25 52 -25 112 1 85 18 125 70 163 86 63 187 51 260 -32 l38 -44 104 3 103 3 -3 28 c-8 72 -119 208 -198 242 -103 45 -219 56 -314 31z"
    />
    <path
      d="M2110 1869 c0 -10 73 -150 90 -174 7 -9 23 -38 101 -182 17 -32 41 -74 53 -93 18 -30 22 -55 26 -175 l5 -140 105 0 105 0 5 141 c3 81 10 147 16 155 6 8 25 40 43 72 62 114 94 170 122 219 16 27 29 51 29 53 0 2 16 30 34 61 19 32 33 61 30 66 -3 4 -58 8 -123 8 l-118 0 -63 -122 c-34 -68 -66 -127 -71 -132 -12 -13 -24 5 -92 140 l-58 114 -120 0 c-79 0 -119 -4 -119 -11z"
    />
    <path
      d="M2985 1867 c-3 -6 -4 -181 -3 -387 l3 -375 270 0 270 0 0 100 0 100 -160 5 -160 5 -3 283 -2 282 -105 0 c-76 0 -107 -4 -110 -13z"
    />
    <path
      d="M3645 1867 c-3 -6 -4 -181 -3 -387 l3 -375 105 0 105 0 3 388 2 387 -105 0 c-75 0 -107 -4 -110 -13z"
    />
    <path
      d="M4035 1867 c-3 -6 -4 -181 -3 -387 l3 -375 105 0 105 0 3 87 c2 71 6 89 20 97 9 4 60 11 112 14 96 5 158 24 206 64 133 112 127 363 -12 454 -82 54 -108 59 -330 59 -155 0 -206 -3 -209 -13z m350 -177 c75 -28 99 -112 47 -167 -22 -24 -39 -32 -84 -37 -91 -12 -98 -4 -98 108 0 51 3 96 7 99 10 11 98 8 128 -3z"
    />
  </g>
</svg>

