<svg
  version="1.0"
  xmlns="http://www.w3.org/2000/svg"
  width="128"
  height="43"
  viewBox="0 0 423.000000 270.000000"
  preserveAspectRatio="xMidYMid meet"
>
  <style>
    g{
      fill: #000;
    }

    @media (prefers-color-scheme: dark) {
      g {
        fill: #fff;
      }
    }
  </style>
  <g
    transform="translate(0.000000,270.000000) scale(0.100000,-0.100000)"
    stroke="none"
  >
    <path
      d="M423 2688 c1 -6 -10 -18 -24 -25 -15 -7 -38 -28 -53 -47 l-26 -35 0 -1226 c0 -1373 -7 -1248 74 -1306 l39 -29 1799 0 c1780 0 1799 0 1838 20 22 11 51 37 65 57 l25 38 0 1217 c0 1362 6 1252 -72 1300 -21 13 -38 29 -38 36 0 9 -370 12 -1815 12 -1392 0 -1814 -3 -1812 -12z m3624 -112 l28 -24 0 -1195 0 -1195 -24 -26 -24 -26 -1787 0 -1787 0 -27 25 -26 24 0 1190 0 1189 26 31 26 31 1783 0 1784 0 28 -24z"
    />
    <path
      d="M2220 2423 c-25 -10 -64 -43 -82 -71 -17 -25 -18 -87 -18 -1003 l0 -975 34 -40 c21 -25 49 -45 74 -52 56 -17 1528 -17 1584 0 59 18 105 74 113 140 3 29 5 469 3 978 l-3 925 -22 28 c-12 16 -34 38 -50 50 l-28 22 -795 2 c-437 1 -802 -1 -810 -4z m595 -671 c10 -7 103 -135 249 -342 98 -139 147 -203 153 -197 3 3 4 121 4 262 -1 183 2 261 10 271 17 21 66 18 79 -5 6 -13 10 -143 10 -355 0 -359 -1 -366 -51 -366 -36 0 -55 17 -113 102 -31 46 -92 133 -136 193 -44 61 -100 140 -125 178 -75 111 -76 107 -74 -194 1 -278 1 -278 -46 -279 -12 0 -26 5 -33 12 -17 17 -17 699 0 716 13 13 57 16 73 4z"
    />
    <path
      d="M1145 1735 c-86 -28 -143 -70 -187 -137 -132 -203 -65 -469 142 -566 48 -23 68 -26 165 -26 143 -1 197 17 276 94 62 61 99 124 99 170 l0 30 -100 0 c-55 0 -100 -3 -100 -7 0 -16 -56 -71 -87 -87 -61 -31 -163 -14 -201 33 -74 93 -67 213 18 284 75 63 208 40 256 -45 7 -13 27 -17 99 -18 50 -1 96 -1 103 -1 20 1 14 38 -15 92 -51 95 -136 162 -236 187 -59 15 -181 14 -232 -3z"
    />
  </g>
</svg>
